<?xml version="1.0" encoding="UTF-8"?>
<svg version="1.1" xmlns="http://www.w3.org/2000/svg" width="512" height="512">
<path d="M0 0 C168.96 0 337.92 0 512 0 C512 168.96 512 337.92 512 512 C343.04 512 174.08 512 0 512 C0 343.04 0 174.08 0 0 Z " fill="#18367D" transform="translate(0,0)"/>
<path d="M0 0 C22.44 0 44.88 0 68 0 C72.79073375 9.58146749 77.45008275 19.00621126 81.6697998 28.8197937 C83.16081901 32.28639692 84.66764707 35.74614437 86.171875 39.20703125 C86.48505676 39.9286293 86.79823853 40.65022736 87.12091064 41.39369202 C90.61300965 49.43097508 94.18145009 57.43394993 97.75 65.4375 C103.83598895 79.09652615 109.86247889 92.78080554 115.86279297 106.47766113 C122.9404738 122.62970798 130.09415921 138.74745316 137.27636719 154.85327148 C141.59234269 164.53798535 145.86437547 174.23669451 150 184 C153.26274383 180.20259951 155.01481426 175.81756881 157 171.27734375 C157.38772583 170.40175308 157.77545166 169.52616241 158.17492676 168.6240387 C159.45478289 165.73063337 160.72736443 162.83408759 162 159.9375 C162.89991503 157.8995295 163.80031288 155.86177215 164.70117188 153.82421875 C167.02410429 148.56735661 169.34130625 143.30798899 171.65722656 138.04803467 C173.71568324 133.37543158 175.77944569 128.70517823 177.84375 124.03515625 C178.62240104 122.27352118 179.4010469 120.51188382 180.1796875 118.75024414 C180.5622168 117.88480988 180.94474609 117.01937561 181.33886719 116.12771606 C182.51034295 113.47659326 183.68105567 110.82513471 184.8515625 108.17358398 C190.95850107 94.34145325 197.09557371 80.52284931 203.24212646 66.70828247 C207.97958724 56.0601497 212.70778156 45.40804982 217.4140625 34.74609375 C217.8542572 33.74893341 218.2944519 32.75177307 218.74798584 31.72439575 C220.8622259 26.93415035 222.97500274 22.14326534 225.0859375 17.3515625 C225.8411291 15.63931554 226.59633655 13.92707556 227.3515625 12.21484375 C227.69329498 11.43789658 228.03502747 10.6609494 228.38711548 9.86045837 C228.70361053 9.14330154 229.02010559 8.42614471 229.34619141 7.68725586 C229.61895905 7.06797714 229.89172668 6.44869843 230.17276001 5.81065369 C231.06786533 3.85145713 232.03670724 1.92658552 233 0 C255.77 0 278.54 0 302 0 C301.05362932 4.7318534 299.52607115 8.54935495 297.4921875 12.859375 C296.95646873 14.01202347 296.95646873 14.01202347 296.40992737 15.18795776 C295.63922751 16.84476194 294.86609541 18.50043643 294.09078979 20.15509033 C292.43865526 23.68130835 290.79828546 27.21295458 289.15739441 30.74441528 C288.31780941 32.55122107 287.4776463 34.35775832 286.63691711 36.16403198 C282.85421581 44.29542066 279.13635917 52.4552147 275.4375 60.625 C270.18021551 72.22425134 264.88463056 83.8053605 259.5625 95.375 C254.00730065 107.4521771 248.46210337 119.53379285 242.9375 131.625 C242.6093631 132.3431488 242.2812262 133.06129761 241.94314575 133.8012085 C240.28984173 137.41978177 238.63680387 141.03847655 236.98388672 144.65722656 C233.99110991 151.20900611 230.99595737 157.75969964 228.00100708 164.31048584 C226.33390961 167.95694708 224.66696233 171.60347698 223 175.25 C222.33333405 176.70833366 221.66666739 178.166667 221 179.625 C220.67 180.346875 220.34 181.06875 220 181.8125 C217 188.375 217 188.375 215.99998474 190.56253052 C215.33336605 192.02076081 214.66675025 193.47899241 214.00013733 194.93722534 C212.33276026 198.58464607 210.66533297 202.23204382 208.99780273 205.87939453 C206.00623262 212.42291547 203.0149996 218.96658925 200.02568054 225.51113892 C198.3715388 229.13254099 196.71709764 232.7538062 195.0625 236.375 C194.73444366 237.09298767 194.40638733 237.81097534 194.06838989 238.55072021 C188.52205902 250.68762113 182.9516967 262.81338227 177.37423706 274.93600464 C173.46460524 283.43489537 169.5665658 291.9388037 165.69921875 300.45703125 C165.35336227 301.21880676 165.0075058 301.98058228 164.65116882 302.76544189 C163.00934864 306.38318249 161.36952317 310.00181412 159.73217773 313.62158203 C159.14697442 314.91308674 158.56176944 316.20459069 157.9765625 317.49609375 C157.47205566 318.61169678 156.96754883 319.7272998 156.44775391 320.87670898 C155.02340587 323.94950567 153.53059037 326.97891833 152 330 C151.01 330 150.02 330 149 330 C148.4121875 328.66001953 148.4121875 328.66001953 147.8125 327.29296875 C142.8048462 315.93279821 137.63971784 304.64717162 132.46243286 293.3637085 C127.19881686 281.88499021 122.03904843 270.36404164 116.9375 258.8125 C111.63545688 246.80931729 106.18043768 234.89232163 100.56845093 223.03112793 C95.64089022 212.60767119 90.90149199 202.11182706 86.25 191.5625 C80.45072052 178.41340136 74.50056 165.34207469 68.4375 152.3125 C68.03522186 151.44793182 67.63294373 150.58336365 67.21847534 149.69259644 C66.81758698 148.83102936 66.41669861 147.96946228 66.00366211 147.08178711 C60.43687498 135.1161917 54.93588347 123.12298868 49.48974609 111.10205078 C48.88380539 109.76464104 48.27784837 108.42723869 47.671875 107.08984375 C47.37258087 106.42917908 47.07328674 105.7685144 46.7649231 105.08782959 C44.54873154 100.1998156 42.31676789 95.31917421 40.078125 90.44140625 C32.86798361 74.72677531 25.73774409 58.9819225 18.74685669 43.16836548 C13.77178127 31.91590693 8.69333445 20.71896661 3.45214844 9.58764648 C2.99356445 8.60739502 2.53498047 7.62714355 2.0625 6.6171875 C1.66160156 5.76753418 1.26070313 4.91788086 0.84765625 4.04248047 C0 2 0 2 0 0 Z " fill="#EC4036" transform="translate(105,86)"/>
<path d="M0 0 C22.77 0 45.54 0 69 0 C68.05362932 4.7318534 66.52607115 8.54935495 64.4921875 12.859375 C63.95646873 14.01202347 63.95646873 14.01202347 63.40992737 15.18795776 C62.63922751 16.84476194 61.86609541 18.50043643 61.09078979 20.15509033 C59.43865526 23.68130835 57.79828546 27.21295458 56.15739441 30.74441528 C55.31780941 32.55122107 54.4776463 34.35775832 53.63691711 36.16403198 C49.85421581 44.29542066 46.13635917 52.4552147 42.4375 60.625 C37.18021551 72.22425134 31.88463056 83.8053605 26.5625 95.375 C21.00730065 107.4521771 15.46210337 119.53379285 9.9375 131.625 C9.6093631 132.3431488 9.2812262 133.06129761 8.94314575 133.8012085 C7.28984173 137.41978177 5.63680387 141.03847655 3.98388672 144.65722656 C0.99110991 151.20900611 -2.00404263 157.75969964 -4.99899292 164.31048584 C-6.66609039 167.95694708 -8.33303767 171.60347698 -10 175.25 C-10.66666595 176.70833366 -11.33333261 178.166667 -12 179.625 C-12.33 180.346875 -12.66 181.06875 -13 181.8125 C-16.00000001 188.37500002 -16.00000001 188.37500002 -17.00001526 190.56253052 C-17.66663395 192.02076081 -18.33324975 193.47899241 -18.99986267 194.93722534 C-20.66723974 198.58464607 -22.33466703 202.23204382 -24.00219727 205.87939453 C-26.99376738 212.42291547 -29.9850004 218.96658925 -32.97431946 225.51113892 C-34.6284612 229.13254099 -36.28290236 232.7538062 -37.9375 236.375 C-38.26555634 237.09298767 -38.59361267 237.81097534 -38.93161011 238.55072021 C-43.76972893 249.13785794 -48.62531003 259.71687231 -53.48950195 270.29205322 C-59.16131562 282.62389246 -64.82082284 294.9612001 -70.44332886 307.31561279 C-71.09914882 308.75657669 -71.75532991 310.19737629 -72.41189575 311.63800049 C-73.31617708 313.62270019 -74.21889407 315.60810332 -75.12109375 317.59375 C-75.88570923 319.27500977 -75.88570923 319.27500977 -76.66577148 320.99023438 C-77.8402259 323.63958004 -78.9457991 326.30094442 -80 329 C-80.33 329 -80.66 329 -81 329 C-81.06268424 325.22403062 -81.12423459 321.44804407 -81.1848526 317.67204094 C-81.20758142 316.25755539 -81.23044571 314.84307202 -81.25344086 313.42859077 C-81.39547391 304.64585283 -81.51696621 295.86333319 -81.60058594 287.07983398 C-81.63415616 283.67691427 -81.66851484 280.27400303 -81.703125 276.87109375 C-81.7116021 276.01060362 -81.72007919 275.15011349 -81.72881317 274.2635479 C-81.84185771 263.28132892 -82.10446439 252.31851985 -82.54702759 241.34475708 C-83.95837829 206.20730014 -83.8644107 177.51143144 -65.43994141 146.27978516 C-62.04205563 140.4558467 -59.45388794 134.3256217 -56.86730957 128.11022949 C-55.51930596 124.88978281 -54.11480094 121.69421221 -52.71484375 118.49609375 C-52.42779572 117.8375943 -52.14074768 117.17909485 -51.84500122 116.50064087 C-47.65495322 106.89507977 -43.38506436 97.32464969 -39.125 87.75 C-38.69816925 86.79058502 -38.2713385 85.83117004 -37.83157349 84.84268188 C-35.70242497 80.0572971 -33.57260666 75.27221087 -31.44238281 70.48730469 C-28.12344907 63.03172889 -24.80955769 55.57391374 -21.49581909 48.11602783 C-20.51372836 45.90589481 -19.53143992 43.69584979 -18.54907227 41.48583984 C-15.78676736 35.27150317 -13.02490164 29.05697361 -10.26565552 22.84127808 C-9.40249766 20.89689298 -8.5391658 18.95258523 -7.67578125 17.00830078 C-6.62982258 14.65267776 -5.58422719 12.29689338 -4.5390625 9.94091797 C-4.08402344 8.91627441 -3.62898438 7.89163086 -3.16015625 6.8359375 C-2.56666382 5.49861572 -2.56666382 5.49861572 -1.96118164 4.13427734 C-1.33484795 2.74352065 -0.68212874 1.36425747 0 0 Z " fill="#F4FAF8" transform="translate(338,86)"/>
</svg>
